{"title":"THE_FIGHTER","uid":8041588,"size":994597283,"categoryP":"video","categoryS":"movies","magnet":"?xt=urn:btih:e33c3f0f78a1ee403e512e4c8a9c93bc82f81d97&amp;dn=THE_FIGHTER&amp;tr=udp%3A%2F%2Ftracker.openbittorrent.com%3A80&amp;tr=udp%3A%2F%2Fopen.demonii.com%3A1337&amp;tr=udp%3A%2F%2Ftracker.coppersurfer.tk%3A6969&amp;tr=udp%3A%2F%2Fexodus.desync.com%3A6969","seeders":0,"leechers":1,"uploader":"Armani-1","files":5,"time":1358643215,"description":" &lt;a href=&quot;http://www.piczend.com/image/1358611107_vlcsnap-2013-01-19-08h57m22s170.png&quot; rel=&quot;nofollow&quot; target=&quot;_NEW&quot;&gt;http://www.piczend.com/image/1358611107_vlcsnap-2013-01-19-08h57m22s170.png&lt;/a&gt; &lt;a href=&quot;\nhttp://www.piczend.com/image/1358611107_vlcsnap-2013-01-19-08h57m31s5.png&quot; rel=&quot;nofollow&quot; target=&quot;_NEW&quot;&gt;\nhttp://www.piczend.com/image/1358611107_vlcsnap-2013-01-19-08h57m31s5.png&lt;/a&gt; &lt;a href=&quot;\nhttp://www.piczend.com/image/1358611102_vlcsnap-2013-01-19-08h57m36s58.png&quot; rel=&quot;nofollow&quot; target=&quot;_NEW&quot;&gt;\nhttp://www.piczend.com/image/1358611102_vlcsnap-2013-01-19-08h57m36s58.png&lt;/a&gt; &lt;a href=&quot;\nhttp://www.piczend.com/image/1358611105_vlcsnap-2013-01-19-08h57m42s109.png&quot; rel=&quot;nofollow&quot; target=&quot;_NEW&quot;&gt;\nhttp://www.piczend.com/image/1358611105_vlcsnap-2013-01-19-08h57m42s109.png&lt;/a&gt; &lt;a href=&quot;\nhttp://www.piczend.com/image/1358611104_vlcsnap-2013-01-19-08h57m50s194.png&quot; rel=&quot;nofollow&quot; target=&quot;_NEW&quot;&gt;\nhttp://www.piczend.com/image/1358611104_vlcsnap-2013-01-19-08h57m50s194.png&lt;/a&gt;\n\nVideo\nID : 0\nFormat : MPEG-4 Visual\nFormat profile : Advanced Simple@L5\nFormat settings, BVOP : 2\nFormat settings, QPel : No\nFormat settings, GMC : No warppoints\nFormat settings, Matrix : Default (H.263)\nMuxing mode : Packed bitstream\nCodec ID : XVID\nCodec ID/Hint : XviD\nDuration : 1h 55mn\nBit rate : 680 Kbps\nWidth : 640 pixels\nHeight : 266 pixels\nDisplay aspect ratio : 2.40:1\nFrame rate : 20.000 fps\nColor space : YUV\nChroma subsampling : 4:2:0\nBit depth : 8 bits\nScan type : Progressive\nCompression mode : Lossy\nBits/(Pixel*Frame) : 0.200\nStream size : 563 MiB (60%)\nWriting library : XviD 1.2.1 (UTC 2008-12-04)\n\nAudio\nID : 1\nFormat : AC-3\nFormat/Info : Audio Coding 3\nMode extension : CM (complete main)\nFormat settings, Endianness : Big\nCodec ID : 2000\nDuration : 1h 55mn\nBit rate mode : Constant\nBit rate : 448 Kbps\nChannel(s) : 6 channels\nChannel positions : Front: L C R, Side: L R, LFE\nSampling rate : 48.0 KHz\nBit depth : 16 bits\nCompression mode : Lossy\nStream size : 370 MiB (39%)\nAlignment : Aligned on interleaves\nInterleave, duration : 32 ms (0.64 video frame)\n\n","torrent":{"xt":"urn:btih:e33c3f0f78a1ee403e512e4c8a9c93bc82f81d97","amp;dn":"THE_FIGHTER","amp;tr":["udp%3A%2F%2Ftracker.openbittorrent.com%3A80","udp%3A%2F%2Fopen.demonii.com%3A1337","udp%3A%2F%2Ftracker.coppersurfer.tk%3A6969","udp%3A%2F%2Fexodus.desync.com%3A6969"],"infoHash":"e33c3f0f78a1ee403e512e4c8a9c93bc82f81d97","infoHashBuffer":{"type":"Buffer","data":[227,60,63,15,120,161,238,64,62,81,46,76,138,156,147,188,130,248,29,151]},"announce":[],"urlList":[]}}